<svg width="24" height="24" viewBox="0 0 24 24" fill="none" xmlns="http://www.w3.org/2000/svg">
<path d="M12 24C18.6274 24 24 18.6274 24 12C24 5.37258 18.6274 0 12 0C5.37258 0 0 5.37258 0 12C0 18.6274 5.37258 24 12 24Z" fill="black"/>
<path d="M9.2694 19.8072C9.25397 19.8072 9.23855 19.8072 9.23084 19.8072C8.93012 19.7841 8.69108 19.5373 8.69108 19.2289C8.69108 18.7894 8.74506 18.3807 8.86072 18.0029L10.241 8.34891C10.2872 8.03277 10.5802 7.81687 10.8964 7.85542C11.2125 7.90169 11.4361 8.1947 11.3899 8.51084L10.2949 16.1523C11.2511 15.574 12.292 15.5663 12.3537 15.5663C15.2222 15.5663 17.5586 13.2299 17.5586 10.3614C17.5586 7.49301 15.2222 5.15663 12.3537 5.15663C9.4853 5.15663 7.14891 7.49301 7.14891 10.3614C7.14891 11.2096 7.35711 12.0501 7.75036 12.7904C7.89686 13.0757 7.78891 13.4227 7.51132 13.5692C7.22602 13.7157 6.87903 13.6077 6.73253 13.3301C6.25446 12.4202 6 11.3947 6 10.3614C6 6.85301 8.85301 4 12.3614 4C15.8699 4 18.7229 6.85301 18.7229 10.3614C18.7229 13.8699 15.8699 16.7229 12.3614 16.7229C12.292 16.7229 10.6573 16.7537 10.0713 18.0723C10.0482 18.134 10.0173 18.1957 10.0019 18.2573L9.85542 19.306C9.80145 19.599 9.5547 19.8072 9.2694 19.8072Z" fill="white"/>
<path d="M13 20.4989C12.74 20.4989 12.48 20.3889 12.29 20.2089C12.11 20.0189 12 19.7589 12 19.4989C12 19.3689 12.03 19.2389 12.08 19.1189C12.13 18.9889 12.2 18.8889 12.29 18.7889C12.57 18.5089 13.01 18.4189 13.38 18.5789C13.51 18.6289 13.61 18.6989 13.71 18.7889C13.8 18.8889 13.87 18.9889 13.92 19.1189C13.97 19.2389 14 19.3689 14 19.4989C14 19.7589 13.89 20.0189 13.71 20.2089C13.61 20.2989 13.51 20.3689 13.38 20.4189C13.26 20.4689 13.13 20.4989 13 20.4989Z" fill="#E53935"/>
</svg>
