<svg width="24" height="24" viewBox="0 0 24 24" fill="none" xmlns="http://www.w3.org/2000/svg">
<path d="M0 12C0 5.37258 5.37258 0 12 0C18.6274 0 24 5.37258 24 12C24 18.6274 18.6274 24 12 24C5.37258 24 0 18.6274 0 12Z" fill="#F0F3FA"/>
<path d="M7.04077 4.7085C7.53757 4.00085 8.49774 3.68919 9.73974 3.78999C11.4533 3.93348 13.7219 4.86845 15.9076 6.45245C18.0851 8.04467 19.6829 9.94033 20.3618 11.5408C20.8586 12.7031 20.8751 13.7316 20.3783 14.4388L16.9675 19.2916C16.4707 19.9992 15.5018 20.3109 14.2685 20.2101C12.5549 20.0584 10.2777 19.1316 8.10071 17.5394C5.915 15.9554 4.32534 14.0598 3.63826 12.4593C3.14146 11.297 3.125 10.2684 3.6218 9.5613L7.04077 4.7085ZM19.9067 14.085C20.3042 13.5295 20.2214 12.7036 19.8321 11.7768C19.1779 10.252 17.6464 8.45765 15.5599 6.94102C13.4822 5.42439 11.3212 4.52285 9.69037 4.3881C8.69677 4.30376 7.90991 4.48942 7.51288 5.05359L7.49591 5.08753C7.12357 5.6517 7.20637 6.45245 7.59568 7.36222C8.24985 8.8953 9.7814 10.6896 11.8591 12.2068C13.9373 13.7229 16.0984 14.6239 17.7292 14.7592C18.7063 14.8353 19.4762 14.6579 19.8815 14.1271L19.9067 14.085ZM14.5915 8.31467C15.6345 9.07273 16.4044 9.97376 16.7273 10.7406C16.9176 11.1705 16.9675 11.5495 16.7772 11.8103C16.5947 12.0715 16.2223 12.1476 15.7672 12.1055C14.9474 12.0381 13.871 11.583 12.828 10.8249C11.7845 10.0668 11.0147 9.17353 10.6917 8.40673C10.5096 7.9773 10.4603 7.59828 10.6423 7.33702C10.8244 7.07576 11.1972 7.00016 11.6606 7.03359C12.4721 7.1097 13.5568 7.55662 14.5915 8.31467Z" fill="#0E0F23"/>
<path d="M19.8321 11.7768C20.2214 12.7035 20.3042 13.5289 19.9067 14.0854L19.882 14.127C19.4757 14.6578 18.7063 14.8352 17.7292 14.7596C16.0984 14.6244 13.9373 13.7228 11.8596 12.2062C9.7814 10.6901 8.24934 8.89522 7.59568 7.36162C7.20637 6.45236 7.12357 5.65162 7.49591 5.08745L7.51288 5.0535C7.91042 4.48933 8.69677 4.30367 9.69037 4.38802C11.3207 4.52276 13.4822 5.4243 15.5599 6.94093C17.6464 8.45705 19.1779 10.2519 19.8321 11.7768Z" fill="white"/>
<path d="M20.5176 11.9466C20.4709 11.8094 20.4189 11.674 20.3618 11.5408C19.6829 9.94033 18.0851 8.04468 15.9081 6.45245C13.7224 4.86845 11.4533 3.93348 9.73974 3.78999C8.49774 3.68919 7.53757 4.00085 7.04077 4.7085L3.6218 9.5613C3.125 10.269 3.14146 11.2965 3.63826 12.4593C4.09237 13.5167 4.93991 14.7031 6.09345 15.8433C6.1958 15.833 6.29763 15.8171 6.39946 15.7939C7.01403 15.6546 7.60288 15.0996 8.1902 14.5468C8.94723 13.834 9.70014 13.1248 10.4973 13.3161C11.0558 13.4426 11.5001 14.0423 11.9558 14.6584C12.1487 14.9191 12.3441 15.183 12.5508 15.4144C13.2132 16.194 13.9415 16.5335 14.6784 16.3735C15.5208 16.2048 16.1621 15.4524 16.7582 14.6034C15.2894 14.2639 13.547 13.438 11.8591 12.2068C9.7814 10.6896 8.24986 8.89531 7.59568 7.36222C7.20637 6.45193 7.12357 5.6517 7.49591 5.08753L7.51288 5.05359C7.91043 4.48942 8.69677 4.30376 9.69037 4.3881C11.3207 4.52285 13.4822 5.42439 15.5599 6.94102C17.6433 8.45508 19.1733 10.2463 19.829 11.7702L19.9272 11.7774C20.1623 11.8031 20.3556 11.8617 20.5176 11.9466Z" fill="url(#paint0_linear_911_1595)"/>
<path d="M16.7273 10.7403C16.4043 9.974 15.6345 9.07245 14.5915 8.31388C13.5567 7.55582 12.4721 7.10942 11.6606 7.03331C11.1972 6.99988 10.8243 7.07548 10.6423 7.33674C10.4602 7.598 10.5096 7.97702 10.6917 8.40645C11.0146 9.17325 11.7845 10.0661 12.828 10.8246C13.871 11.5827 14.9474 12.0378 15.7671 12.1052C16.2223 12.1474 16.5951 12.0713 16.7772 11.8105C16.9675 11.5493 16.9176 11.1702 16.7273 10.7403Z" fill="url(#paint1_linear_911_1595)"/>
<path d="M6.61896 6.46985C6.68788 6.46677 6.74547 6.52128 6.74856 6.59071C6.7501 6.63339 6.75267 6.67608 6.75576 6.71877C6.75862 6.75183 6.74826 6.78467 6.72696 6.81012C6.70566 6.83556 6.67515 6.85153 6.6421 6.85454C6.62568 6.85573 6.60919 6.85366 6.59357 6.84845C6.57795 6.84325 6.56352 6.83501 6.55109 6.82421C6.53867 6.81341 6.5285 6.80026 6.52117 6.78552C6.51384 6.77078 6.5095 6.75473 6.50839 6.73831C6.5048 6.69276 6.50206 6.64716 6.50016 6.60151C6.49848 6.5683 6.51005 6.53579 6.53232 6.5111C6.5546 6.48642 6.58576 6.47158 6.61896 6.46985ZM6.64365 6.86739C6.6599 6.865 6.67646 6.86584 6.69239 6.86988C6.70831 6.87391 6.72328 6.88106 6.73643 6.89091C6.74957 6.90076 6.76064 6.91311 6.76899 6.92726C6.77734 6.94141 6.78281 6.95707 6.78508 6.97334C6.93319 7.96951 7.4845 8.94665 8.2009 9.84819C8.22165 9.8744 8.23133 9.90769 8.22787 9.94093C8.22441 9.97418 8.20809 10.0048 8.18239 10.0261C8.16974 10.0366 8.15513 10.0443 8.13943 10.049C8.12373 10.0537 8.10725 10.0552 8.09095 10.0534C8.07466 10.0517 8.05889 10.0467 8.04456 10.0387C8.03024 10.0307 8.01765 10.02 8.00753 10.0071C7.27982 9.09014 6.69713 8.07082 6.53925 7.01139C6.53406 6.97846 6.54213 6.94482 6.5617 6.91783C6.58127 6.89084 6.61073 6.8727 6.64365 6.86739ZM10.3146 12.1903C10.3251 12.1777 10.338 12.1674 10.3525 12.1599C10.367 12.1524 10.3829 12.1479 10.3991 12.1466C10.4154 12.1453 10.4318 12.1473 10.4473 12.1524C10.4628 12.1575 10.4771 12.1657 10.4895 12.1764L10.5877 12.2623L10.7111 12.3677C10.7365 12.3893 10.7525 12.4201 10.7555 12.4533C10.7586 12.4865 10.7486 12.5197 10.7276 12.5456C10.7173 12.5584 10.7046 12.5689 10.6902 12.5767C10.6758 12.5845 10.66 12.5893 10.6437 12.5909C10.6274 12.5925 10.611 12.5908 10.5954 12.5859C10.5798 12.5811 10.5653 12.5731 10.5527 12.5626L10.4267 12.4546L10.3275 12.3682C10.3025 12.346 10.2871 12.3149 10.2847 12.2816C10.2823 12.2482 10.293 12.2158 10.3146 12.1903ZM10.7888 12.5955C10.7987 12.5825 10.8111 12.5715 10.8252 12.5633C10.8394 12.5551 10.8551 12.5498 10.8713 12.5478C10.8875 12.5457 10.904 12.5469 10.9198 12.5513C10.9356 12.5557 10.9503 12.5632 10.9631 12.5734C11.9866 13.3854 13.2327 14.0972 14.4706 14.6064C14.5014 14.6192 14.5259 14.6437 14.5388 14.6745C14.5517 14.7053 14.5519 14.74 14.5395 14.7709C14.5336 14.7863 14.5247 14.8003 14.5133 14.8121C14.5019 14.824 14.4883 14.8335 14.4732 14.84C14.4581 14.8465 14.4419 14.8499 14.4254 14.8501C14.409 14.8502 14.3927 14.8471 14.3775 14.8409C13.1206 14.3235 11.8539 13.6004 10.8104 12.7729C10.7844 12.752 10.7675 12.7218 10.7635 12.6886C10.7595 12.6555 10.7685 12.6221 10.7888 12.5955ZM18.6774 15.4807C18.6829 15.5135 18.6752 15.5472 18.6559 15.5744C18.6367 15.6016 18.6074 15.62 18.5746 15.6257C18.519 15.6347 18.4633 15.6425 18.4074 15.6488C18.3911 15.6506 18.3745 15.6491 18.3587 15.6445C18.3429 15.6398 18.3282 15.6321 18.3155 15.6217C18.3027 15.6113 18.2921 15.5985 18.2843 15.584C18.2765 15.5695 18.2717 15.5536 18.2701 15.5372C18.2663 15.5042 18.2757 15.4711 18.2962 15.445C18.3167 15.4189 18.3467 15.402 18.3796 15.3978C18.4326 15.3917 18.484 15.3845 18.535 15.3762C18.5512 15.3737 18.5678 15.3744 18.5838 15.3783C18.5998 15.3822 18.6148 15.3892 18.6281 15.399C18.6413 15.4087 18.6525 15.421 18.661 15.4351C18.6694 15.4492 18.675 15.4644 18.6774 15.4807Z" fill="white"/>
<defs>
<linearGradient id="paint0_linear_911_1595" x1="7.90732" y1="4.64548" x2="15.0034" y2="14.0646" gradientUnits="userSpaceOnUse">
<stop stop-color="#27B0E6"/>
<stop offset="0.52" stop-color="#C26BB3"/>
<stop offset="1" stop-color="#FA52A0"/>
</linearGradient>
<linearGradient id="paint1_linear_911_1595" x1="7.90732" y1="4.64548" x2="15.0034" y2="14.0646" gradientUnits="userSpaceOnUse">
<stop stop-color="#27B0E6"/>
<stop offset="0.52" stop-color="#C26BB3"/>
<stop offset="1" stop-color="#FA52A0"/>
</linearGradient>
</defs>
</svg>
