<svg width="24" height="24" viewBox="0 0 24 24" fill="none" xmlns="http://www.w3.org/2000/svg">
<path d="M0 12C0 5.37258 5.37258 0 12 0C18.6274 0 24 5.37258 24 12C24 18.6274 18.6274 24 12 24C5.37258 24 0 18.6274 0 12Z" fill="#0E1736"/>
<path d="M17.5262 5.46875V5.4688C17.4745 5.46891 17.4238 5.48265 17.379 5.50858L17.3788 5.50836C17.3788 5.50836 16.574 5.96996 16.2323 6.15872C15.9522 6.31337 15.9319 6.49951 15.9335 6.56242C15.9319 6.62534 15.9522 6.81148 16.2323 6.96619C16.574 7.15489 17.3788 7.61654 17.3788 7.61654L17.379 7.61622C17.4238 7.6422 17.4745 7.65589 17.5262 7.65599C17.6043 7.65599 17.6792 7.62499 17.7345 7.56977C17.7897 7.51449 17.8207 7.4396 17.8207 7.3615C17.8206 7.30981 17.8069 7.25902 17.7811 7.21433C17.7552 7.16959 17.7179 7.13244 17.6732 7.10662L17.6734 7.10619L16.6817 6.56237L17.6735 6.01861L17.6732 6.01813C17.718 5.99236 17.7552 5.95521 17.7811 5.91046C17.807 5.86572 17.8207 5.81494 17.8207 5.76324C17.8207 5.68514 17.7897 5.61025 17.7345 5.55503C17.6792 5.49981 17.6043 5.46875 17.5262 5.46875H17.5262ZM10.7828 5.62639C10.6498 5.62639 10.5181 5.65259 10.3953 5.70348C10.2725 5.75437 10.1608 5.82894 10.0668 5.92297C9.97278 6.017 9.89815 6.12862 9.84726 6.25147C9.79637 6.37431 9.77018 6.50597 9.77018 6.63898C9.77018 6.77192 9.79637 6.90364 9.84726 7.02648C9.89815 7.14933 9.97273 7.26095 10.0668 7.35498C10.1608 7.44901 10.2724 7.52358 10.3953 7.57447C10.5181 7.62536 10.6498 7.65156 10.7828 7.65156C10.9158 7.65156 11.0474 7.62536 11.1703 7.57447C11.2932 7.52358 11.4048 7.44901 11.4988 7.35498C11.5928 7.26095 11.6674 7.14933 11.7183 7.02648C11.7691 6.90359 11.7953 6.77192 11.7953 6.63898C11.7953 6.37041 11.6887 6.11285 11.4988 5.92297C11.3089 5.73309 11.0513 5.62639 10.7828 5.62639ZM21.1883 9.00182C21.0618 9.00204 20.9371 9.03176 20.824 9.08874C20.7111 9.14568 20.613 9.22827 20.5376 9.32984L20.5362 9.32882L18.9277 11.5904L18.9307 11.5913C18.8274 11.7298 18.771 11.8976 18.7696 12.0704C18.771 12.2431 18.8274 12.4109 18.9307 12.5494L18.9277 12.5504L20.5362 14.8119L20.5376 14.8109C20.613 14.9125 20.7111 14.9951 20.824 15.052C20.9371 15.109 21.0618 15.1387 21.1883 15.1389C21.2949 15.1389 21.4005 15.1179 21.4989 15.0771C21.5975 15.0363 21.6869 14.9765 21.7623 14.9011C21.8378 14.8257 21.8975 14.7363 21.9384 14.6378C21.9791 14.5393 22.0002 14.4337 22.0002 14.3271C21.9998 14.1598 21.9478 13.9967 21.8512 13.8601L21.8521 13.8595L20.5787 12.0704L21.8521 10.2814L21.8512 10.2806C21.9478 10.144 21.9998 9.98094 22.0002 9.81367C22.0002 9.70708 21.9791 9.6015 21.9384 9.50298C21.8976 9.40451 21.8378 9.31497 21.7624 9.2396C21.6869 9.16423 21.5975 9.10441 21.499 9.06362C21.4005 9.02283 21.2949 9.00182 21.1883 9.00182ZM9.72607 16.3694C9.50091 16.3693 9.31836 16.5608 9.31836 16.7969C9.31847 16.9599 9.40688 17.1087 9.54641 17.1805C11.9081 18.6618 13.9839 18.5274 13.9839 18.5274C13.9839 18.5274 16.0596 18.6618 18.4213 17.1805C18.5608 17.1087 18.6493 16.9599 18.6494 16.7969C18.6494 16.5608 18.4668 16.3693 18.2417 16.3694C18.1557 16.3696 18.0719 16.3982 18.0024 16.4513L17.9669 16.4749C17.9669 16.4749 16.1958 17.7203 13.9839 17.6822C11.772 17.7203 10.0008 16.4749 10.0008 16.4749L9.96529 16.4513C9.89575 16.3982 9.81203 16.3695 9.72607 16.3694Z" fill="white"/>
<path d="M15.2652 8.9668C15.19 8.96733 15.1148 8.97118 15.0398 8.97818C14.9991 8.98219 14.9584 8.98711 14.9179 8.99299C14.871 8.99882 14.8243 9.00593 14.7778 9.01427C14.7403 9.02186 14.7029 9.03025 14.6657 9.03944C14.617 9.0504 14.5686 9.06281 14.5205 9.07654C14.4864 9.08713 14.4524 9.09841 14.4188 9.11044C14.3692 9.1269 14.3201 9.14481 14.2716 9.16421C14.2404 9.17747 14.2094 9.19132 14.1786 9.2058C14.1293 9.22783 14.0807 9.25135 14.0328 9.27637C14.0047 9.29176 13.977 9.30769 13.9495 9.3241C13.9008 9.35195 13.853 9.3813 13.8061 9.4122C13.7817 9.42904 13.7576 9.4463 13.7337 9.46395C13.686 9.49778 13.6395 9.53323 13.5942 9.57016C13.5733 9.58786 13.5528 9.60593 13.5326 9.62432C13.4867 9.6642 13.4423 9.70562 13.3993 9.7486C13.3817 9.76694 13.3644 9.78554 13.3473 9.80436C13.3046 9.84969 13.2635 9.89652 13.2241 9.94474C13.209 9.96403 13.1942 9.98349 13.1797 10.0032C13.141 10.0535 13.104 10.1052 13.069 10.1582C13.0569 10.1774 13.045 10.1968 13.0333 10.2164C12.999 10.2715 12.9667 10.3279 12.9365 10.3854C12.9267 10.4049 12.9172 10.4247 12.908 10.4445C12.8788 10.5036 12.8519 10.5639 12.8272 10.6251C12.82 10.6444 12.8129 10.6638 12.806 10.6832C12.7826 10.7459 12.7615 10.8095 12.7428 10.8738C12.7376 10.8934 12.7326 10.9132 12.7278 10.9329C12.7105 10.9979 12.6959 11.0635 12.6837 11.1296C12.6805 11.1492 12.6776 11.169 12.6748 11.1887C12.664 11.2557 12.6559 11.323 12.6504 11.3906C12.6468 11.4336 12.6443 11.4768 12.6429 11.5199H12.6423V11.537C12.6414 11.5552 12.6408 11.5735 12.6403 11.5917C12.6406 11.5989 12.6408 11.606 12.6411 11.6131H12.6414H12.6422V14.3576H12.6426C12.645 14.5656 12.7294 14.7642 12.8773 14.9106C13.0252 15.0568 13.2249 15.1389 13.433 15.139C13.641 15.1389 13.8406 15.0568 13.9885 14.9105C14.1365 14.7642 14.2208 14.5656 14.2232 14.3576H14.2236V14.3483V11.5251C14.2382 11.2985 14.3262 11.0828 14.4743 10.9106C14.6223 10.7385 14.8225 10.6193 15.0444 10.571C15.047 10.5703 15.0496 10.5697 15.0522 10.5691C15.0782 10.5639 15.1045 10.5598 15.1309 10.5566C15.1394 10.5552 15.148 10.5539 15.1566 10.5527C15.1778 10.5508 15.1991 10.5497 15.2204 10.5491C15.2353 10.548 15.2502 10.5473 15.2651 10.5468C15.2652 10.5468 15.2652 10.5468 15.2653 10.5468C15.2823 10.5473 15.2993 10.5481 15.3163 10.5494C15.3354 10.5499 15.3544 10.551 15.3734 10.5526C15.3835 10.554 15.3936 10.5555 15.4037 10.5572C15.4286 10.5603 15.4534 10.5642 15.4781 10.5691C15.4814 10.5699 15.4848 10.5707 15.4881 10.5716C15.519 10.5782 15.5496 10.5862 15.5798 10.5956C15.7805 10.6593 15.9573 10.7821 16.087 10.9479C16.2167 11.1138 16.2933 11.3149 16.3068 11.5251V14.3483V14.3576H16.3072C16.3096 14.5656 16.3939 14.7642 16.5419 14.9105C16.6898 15.0568 16.8894 15.1389 17.0974 15.139C17.3055 15.1389 17.5051 15.0568 17.6531 14.9106C17.801 14.7642 17.8853 14.5656 17.8878 14.3576H17.8881V11.6131H17.889H17.8893C17.8897 11.606 17.8899 11.5989 17.8901 11.5917C17.8897 11.5735 17.889 11.5552 17.8882 11.537V11.5199H17.8876C17.8861 11.4768 17.8836 11.4336 17.88 11.3906C17.8745 11.3224 17.8663 11.2544 17.8554 11.1868C17.8528 11.168 17.8499 11.1493 17.8469 11.1306C17.8347 11.0639 17.8199 10.9977 17.8025 10.9322C17.7978 10.9127 17.7929 10.8933 17.7877 10.8739C17.769 10.8096 17.748 10.7459 17.7244 10.6832C17.7176 10.6638 17.7105 10.6444 17.7033 10.6252C17.6785 10.5636 17.6514 10.5029 17.622 10.4434C17.613 10.4241 17.6037 10.4049 17.5942 10.3859C17.564 10.3281 17.5315 10.2715 17.497 10.2162C17.4854 10.1967 17.4736 10.1774 17.4615 10.1582C17.4265 10.1052 17.3895 10.0535 17.3508 10.0032C17.3362 9.98349 17.3214 9.96398 17.3064 9.94474C17.267 9.89652 17.2259 9.84969 17.1832 9.80436C17.1661 9.78554 17.1488 9.76694 17.1312 9.7486C17.0882 9.70562 17.0438 9.6642 16.998 9.62432C16.9776 9.60593 16.9571 9.58786 16.9363 9.57016C16.8909 9.53312 16.8442 9.49757 16.7964 9.46368C16.7727 9.4462 16.7488 9.42904 16.7246 9.41236C16.6775 9.3813 16.6294 9.35174 16.5803 9.32373C16.5531 9.30748 16.5257 9.29176 16.498 9.27647C16.4499 9.25135 16.4011 9.22772 16.3515 9.20564C16.3209 9.19126 16.29 9.17742 16.2589 9.16421C16.2104 9.14481 16.1613 9.12685 16.1117 9.11038C16.078 9.09841 16.0441 9.08713 16.0099 9.07654C15.9619 9.06281 15.9135 9.0504 15.8648 9.03944C15.8276 9.03025 15.7903 9.02186 15.7527 9.01427C15.7062 9.00593 15.6594 8.99882 15.6126 8.99299C15.572 8.98711 15.5314 8.98219 15.4906 8.97818C15.4157 8.97118 15.3405 8.96733 15.2653 8.9668C15.2653 8.9668 15.2653 8.9668 15.2652 8.9668ZM2.79071 9.01918C2.581 9.01918 2.3799 9.10247 2.23161 9.25076C2.08332 9.39905 2 9.60015 2 9.80986C2.00022 9.86851 2.00697 9.92699 2.02013 9.98413L2.01842 9.98446L3.13984 14.5558L3.14192 14.5553C3.18736 14.7227 3.28658 14.8705 3.42428 14.976C3.56199 15.0815 3.73059 15.1388 3.90406 15.139C4.07186 15.1388 4.23523 15.0852 4.37052 14.986C4.50588 14.8869 4.60611 14.7472 4.65684 14.5873L4.65786 14.5922L5.49365 12.2067L6.32956 14.5922L6.33052 14.5873C6.38125 14.7472 6.48154 14.8869 6.61684 14.986C6.75219 15.0852 6.9155 15.1388 7.0833 15.139C7.25677 15.1388 7.42537 15.0815 7.56308 14.976C7.70084 14.8705 7.80005 14.7227 7.84544 14.5553L7.84758 14.5558L8.96899 9.98446L8.96728 9.98413C8.98043 9.92699 8.98717 9.86851 8.98738 9.80986C8.98738 9.60015 8.9041 9.39905 8.75581 9.25076C8.60752 9.10247 8.40641 9.01918 8.1967 9.01918C8.00885 9.0194 7.82726 9.08654 7.68437 9.20847C7.54148 9.33041 7.4467 9.49923 7.41698 9.68467L7.41516 9.68435L6.95068 11.5723L6.24023 9.54295L6.23761 9.54392C6.23713 9.54274 6.23665 9.54157 6.23617 9.54039C6.22874 9.52029 6.22056 9.50051 6.21153 9.48105C6.2095 9.4764 6.20746 9.4718 6.20538 9.46715C6.19608 9.44818 6.18608 9.42952 6.17534 9.41134C6.17277 9.40675 6.17015 9.4022 6.16748 9.39766C6.15652 9.37997 6.14487 9.3627 6.13257 9.34591C6.12936 9.34132 6.1261 9.33672 6.12279 9.33223C6.11055 9.31619 6.09766 9.30069 6.08419 9.28567C6.07997 9.28075 6.07569 9.27588 6.07136 9.27113C6.05789 9.2568 6.04383 9.24295 6.02929 9.2297C6.02448 9.2251 6.01962 9.22061 6.0147 9.21612C6.00016 9.2035 5.98514 9.19142 5.96974 9.17993C5.96397 9.17539 5.95809 9.17095 5.95221 9.16656C5.93719 9.15603 5.92184 9.14604 5.90618 9.13652C5.89918 9.13214 5.89212 9.12781 5.88501 9.12359C5.86967 9.11498 5.85401 9.10691 5.83813 9.09932C5.83017 9.09531 5.82215 9.09146 5.81408 9.08772C5.79879 9.08109 5.78328 9.07494 5.76762 9.06927C5.75832 9.06564 5.74891 9.06222 5.7395 9.05896C5.72421 9.05415 5.70882 9.04976 5.69332 9.04586C5.68327 9.04308 5.67322 9.04051 5.66311 9.03816C5.64798 9.03495 5.6328 9.03223 5.61751 9.02993C5.6065 9.028 5.59549 9.02635 5.58442 9.0249C5.57015 9.02341 5.55577 9.02228 5.54145 9.02159C5.52562 9.02031 5.50974 9.01951 5.49387 9.01918C5.49376 9.01918 5.4936 9.01918 5.49349 9.01918C5.4773 9.01951 5.46105 9.02036 5.4449 9.0217C5.43111 9.02239 5.41737 9.02346 5.40363 9.02485C5.39171 9.0264 5.37984 9.02817 5.36803 9.03025C5.3536 9.03244 5.33922 9.03501 5.32489 9.038C5.31425 9.04046 5.30372 9.04319 5.29319 9.04607C5.27796 9.04992 5.26283 9.0542 5.24786 9.05896C5.23845 9.06222 5.22904 9.06564 5.21974 9.06927C5.20408 9.07489 5.18858 9.08103 5.17329 9.08772C5.16522 9.09146 5.1572 9.09531 5.14923 9.09932C5.13341 9.10685 5.1178 9.11498 5.10246 9.12353C5.09508 9.12792 5.08781 9.13235 5.08059 9.13695C5.06525 9.1462 5.05018 9.15603 5.03548 9.16635C5.02927 9.17089 5.02313 9.17555 5.01709 9.1803C5.00185 9.19169 4.98704 9.20366 4.97266 9.21612C4.96775 9.22061 4.96288 9.2251 4.95807 9.2297C4.94353 9.24295 4.92952 9.25675 4.91605 9.27107C4.91162 9.27599 4.90723 9.28096 4.9029 9.28604C4.88959 9.30085 4.87687 9.31619 4.86473 9.33196C4.86126 9.33672 4.85784 9.34153 4.85447 9.34634C4.84228 9.36297 4.83079 9.38007 4.81994 9.39761C4.81721 9.40226 4.81448 9.40696 4.81187 9.41166C4.80123 9.42968 4.79128 9.44818 4.78214 9.46699C4.77995 9.47175 4.77776 9.47656 4.77562 9.48143C4.76675 9.50072 4.75857 9.5204 4.75124 9.54034C4.75076 9.54151 4.75023 9.54274 4.74975 9.54392L4.74707 9.54295L4.03669 11.5723L3.5722 9.68435L3.57038 9.68467C3.54066 9.49923 3.44588 9.33041 3.30299 9.20847C3.1601 9.08649 2.97851 9.0194 2.79066 9.01918H2.79071ZM10.8148 9.01924C10.6075 9.0194 10.4085 9.10092 10.2608 9.24638C10.113 9.39178 10.0283 9.58941 10.0248 9.79672H10.0241V9.80992V14.3483V14.4027H10.0261C10.0398 14.6025 10.129 14.7896 10.2753 14.9263C10.4217 15.063 10.6146 15.139 10.8148 15.139C11.0149 15.1388 11.2076 15.0626 11.3538 14.926C11.5 14.7894 11.589 14.6024 11.6028 14.4027H11.6055V14.3483V9.80992V9.79672H11.6051C11.6016 9.58936 11.5168 9.39172 11.369 9.24627C11.2212 9.10087 11.0222 9.01934 10.8148 9.01924Z" fill="#FBC509"/>
</svg>
